<!-- icon666.com - MILLIONS vector ICONS FREE --><svg id="Layer_1" viewBox="0 0 32 32" xmlns="http://www.w3.org/2000/svg"><path d="m23.404 7v8.659c0 3.414-3.234 6.001-7.235 6.001-3.999.001-7.227-2.586-7.227-6.001v-8.659c0-3.414 3.228-5.994 7.227-5.994 4 0 7.235 2.579 7.235 5.994zm-12.433 23.047c.03.55.498.972 1.048.946h8.306c.553 0 1.001-.447 1.001-1 .001-.552-.447-1.001-1-1.001h-3.152v-3.234c3.669-.256 6.82-1.885 8.379-4.398.307-.462.182-1.083-.278-1.388-.176-.117-.385-.175-.596-.166-.342.014-.651.202-.824.498-1.213 1.956-4.157 3.506-7.857 3.506-3.704 0-6.647-1.554-7.858-3.514-.19-.323-.549-.512-.924-.488-.551.037-.968.514-.931 1.065.011.168.063.331.154.472 1.606 2.6 4.91 4.259 8.734 4.432v3.215h-3.204c-.606.029-1.03.503-.998 1.055z" fill="#000000" style="fill: rgb(255, 255, 255);"></path></svg>